# xmcd
#
# Track frame offsets:
#	150
#	16765
#	29952
#	44530
#	59052
#	71910
#	84310
#	98650
#	113145
#	126670
#	140050
#	155037
#	170892
#	185857
#	199962
#	215375
#
# Disc length: 3079 seconds
#
# Revision: 5
# Processed by: cddbd v1.5.2PL0 Copyright (c) Steve Scherf et al.
# Submitted via: audiograbber 1.83.01
#
DISCID=060c0510
DTITLE=Benny Goodman - Swing Time
DYEAR=1952
DGENRE=Swing
TTITLE0=Sometimes I'm Happy
TTITLE1=Basin Street Blues
TTITLE2=Stompin At The Savoy
TTITLE3=Swingtime In The Rockies
TTITLE4=Pick Yourself Up
TTITLE5=He Ain't Got Rhythm
TTITLE6=Roll 'em
TTITLE7=One O'Clock Jump
TTITLE8=Ooooo-Oh Boom!
TTITLE9=Undecided
TTITLE10=A Smo-o-oth One
TTITLE11=The Man I Love
TTITLE12=King Porter Stomp
TTITLE13=All Star Strut
TTITLE14=Royal Flush
TTITLE15=Air Mail Special
EXTD=
EXTT0=
EXTT1=
EXTT2=
EXTT3=
EXTT4=
EXTT5=
EXTT6=
EXTT7=
EXTT8=
EXTT9=
EXTT10=
EXTT11=
EXTT12=
EXTT13=
EXTT14=
EXTT15=
PLAYORDER=
